<svg width="132" height="31" viewBox="0 0 132 31" fill="none" xmlns="http://www.w3.org/2000/svg">
<g clip-path="url(#clip0_3161_537)">
<path d="M45.666 28.33C45.138 28.33 44.6687 28.2713 44.258 28.154C43.862 28.0367 43.488 27.8973 43.136 27.736V24.612C43.3853 24.8027 43.6713 24.9787 43.994 25.14C44.3167 25.3013 44.6833 25.382 45.094 25.382C45.8273 25.382 46.3847 25.1473 46.766 24.678C47.162 24.194 47.36 23.4973 47.36 22.588C47.36 21.9573 47.2793 21.4513 47.118 21.07C46.9567 20.674 46.7147 20.3807 46.392 20.19C46.084 19.9993 45.6953 19.904 45.226 19.904C44.9473 19.904 44.6907 19.9407 44.456 20.014C44.2213 20.0727 44.0233 20.146 43.862 20.234V26.79H40.144V19.64C40.144 19.244 40.2247 18.914 40.386 18.65C40.562 18.386 40.7967 18.1587 41.09 17.968C41.5447 17.6747 42.1313 17.44 42.85 17.264C43.5687 17.0733 44.3607 16.978 45.226 16.978C46.414 16.978 47.4553 17.176 48.35 17.572C49.2447 17.9533 49.9413 18.562 50.44 19.398C50.9387 20.2193 51.188 21.2827 51.188 22.588C51.188 23.8347 50.946 24.8833 50.462 25.734C49.978 26.5847 49.318 27.23 48.482 27.67C47.6607 28.11 46.722 28.33 45.666 28.33ZM43.884 25.888V31.916C43.7227 31.96 43.488 32.004 43.18 32.048C42.8867 32.092 42.564 32.114 42.212 32.114C41.4933 32.114 40.9653 31.9893 40.628 31.74C40.3053 31.4907 40.144 31.0287 40.144 30.354V25.888H43.884ZM53.1231 22.192H56.8631V27.978C56.7018 28.022 56.4671 28.066 56.1591 28.11C55.8658 28.154 55.5431 28.176 55.1911 28.176C54.4725 28.176 53.9445 28.0513 53.6071 27.802C53.2845 27.5527 53.1231 27.0907 53.1231 26.416V22.192ZM56.8631 24.15H53.1231V13.656C53.2845 13.612 53.5118 13.568 53.8051 13.524C54.1131 13.48 54.4431 13.458 54.7951 13.458C55.5285 13.458 56.0565 13.5827 56.3791 13.832C56.7018 14.0667 56.8631 14.5287 56.8631 15.218V24.15ZM63.8411 25.624C64.0904 25.624 64.3618 25.602 64.6551 25.558C64.9631 25.4993 65.1904 25.426 65.3371 25.338V23.578L63.7531 23.71C63.3424 23.7393 63.0051 23.8273 62.7411 23.974C62.4771 24.1207 62.3451 24.3407 62.3451 24.634C62.3451 24.9273 62.4551 25.1693 62.6751 25.36C62.9098 25.536 63.2984 25.624 63.8411 25.624ZM63.6651 16.978C65.2638 16.978 66.5398 17.308 67.4931 17.968C68.4611 18.6133 68.9451 19.6253 68.9451 21.004V25.932C68.9451 26.3133 68.8351 26.6287 68.6151 26.878C68.4098 27.1127 68.1604 27.318 67.8671 27.494C67.3978 27.7727 66.8258 27.9853 66.1511 28.132C65.4764 28.2787 64.7064 28.352 63.8411 28.352C62.3011 28.352 61.0618 28.0587 60.1231 27.472C59.1991 26.8707 58.7371 25.9687 58.7371 24.766C58.7371 23.754 59.0378 22.9767 59.6391 22.434C60.2551 21.8913 61.1864 21.554 62.4331 21.422L65.3151 21.114V20.96C65.3151 20.5347 65.1244 20.234 64.7431 20.058C64.3764 19.8673 63.8411 19.772 63.1371 19.772C62.5944 19.772 62.0518 19.8307 61.5091 19.948C60.9811 20.0653 60.5044 20.212 60.0791 20.388C59.8884 20.256 59.7271 20.058 59.5951 19.794C59.4631 19.5153 59.3971 19.2293 59.3971 18.936C59.3971 18.232 59.7711 17.7333 60.5191 17.44C60.9444 17.2787 61.4431 17.1613 62.0151 17.088C62.6018 17.0147 63.1518 16.978 63.6651 16.978ZM81.7479 21.114V23.138H78.0079V21.224C78.0079 20.7693 77.8686 20.4393 77.5899 20.234C77.3259 20.014 76.9739 19.904 76.5339 19.904C76.2406 19.904 75.9619 19.9407 75.6979 20.014C75.4486 20.0873 75.2066 20.1827 74.9719 20.3V23.138H71.2319V19.794C71.2319 19.398 71.3126 19.0753 71.4739 18.826C71.6499 18.5767 71.8846 18.3493 72.1779 18.144C72.6766 17.792 73.3072 17.5133 74.0699 17.308C74.8326 17.088 75.6686 16.978 76.5779 16.978C78.2352 16.978 79.5112 17.3447 80.4059 18.078C81.3006 18.7967 81.7479 19.8087 81.7479 21.114ZM71.2319 22.192H74.9719V27.978C74.8106 28.022 74.5759 28.066 74.2679 28.11C73.9746 28.154 73.6519 28.176 73.2999 28.176C72.5812 28.176 72.0532 28.0513 71.7159 27.802C71.3932 27.5527 71.2319 27.0907 71.2319 26.416V22.192ZM78.0079 22.192H81.7479V27.978C81.5866 28.022 81.3519 28.066 81.0439 28.11C80.7506 28.154 80.4279 28.176 80.0759 28.176C79.3572 28.176 78.8292 28.0513 78.4919 27.802C78.1692 27.5527 78.0079 27.0907 78.0079 26.416V22.192ZM85.8621 24.326L85.7301 21.862L90.8121 21.026C90.7827 20.7327 90.6361 20.4393 90.3721 20.146C90.1081 19.8527 89.6974 19.706 89.1401 19.706C88.5534 19.706 88.0621 19.8967 87.6661 20.278C87.2847 20.6593 87.0794 21.202 87.0501 21.906L87.1821 23.754C87.3287 24.4287 87.6587 24.898 88.1721 25.162C88.7001 25.426 89.2867 25.558 89.9321 25.558C90.5481 25.558 91.1347 25.4773 91.6921 25.316C92.2494 25.1547 92.6967 24.9787 93.0341 24.788C93.2687 24.9347 93.4667 25.14 93.6281 25.404C93.7894 25.668 93.8701 25.9467 93.8701 26.24C93.8701 26.724 93.6867 27.1273 93.3201 27.45C92.9681 27.758 92.4767 27.9853 91.8461 28.132C91.2154 28.2787 90.4894 28.352 89.6681 28.352C88.5241 28.352 87.4901 28.1393 86.5661 27.714C85.6567 27.274 84.9307 26.6213 84.3881 25.756C83.8601 24.8907 83.5961 23.8053 83.5961 22.5C83.5961 21.532 83.7501 20.696 84.0581 19.992C84.3807 19.288 84.8061 18.716 85.3341 18.276C85.8621 17.836 86.4487 17.5133 87.0941 17.308C87.7541 17.088 88.4287 16.978 89.1181 16.978C90.1594 16.978 91.0687 17.1833 91.8461 17.594C92.6234 17.99 93.2321 18.54 93.6721 19.244C94.1121 19.9333 94.3321 20.7327 94.3321 21.642C94.3321 22.1407 94.1927 22.522 93.9141 22.786C93.6354 23.05 93.2467 23.2187 92.7481 23.292L85.8621 24.326ZM99.8723 20.454V22.962H96.1323V19.882C96.1323 19.4567 96.2423 19.09 96.4623 18.782C96.6969 18.4593 96.9976 18.1807 97.3643 17.946C97.8776 17.638 98.4789 17.4033 99.1683 17.242C99.8576 17.0807 100.569 17 101.302 17C102.901 17 103.7 17.5647 103.7 18.694C103.7 18.958 103.664 19.2073 103.59 19.442C103.517 19.662 103.429 19.8527 103.326 20.014C103.18 19.9847 103.004 19.9627 102.798 19.948C102.593 19.9333 102.366 19.926 102.116 19.926C101.75 19.926 101.361 19.97 100.95 20.058C100.54 20.146 100.18 20.278 99.8723 20.454ZM96.1323 22.192H99.8723V27.978C99.7109 28.022 99.4763 28.066 99.1683 28.11C98.8749 28.154 98.5523 28.176 98.2003 28.176C97.4816 28.176 96.9536 28.0513 96.6163 27.802C96.2936 27.5527 96.1323 27.0907 96.1323 26.416V22.192ZM106.573 24.326L106.441 21.862L111.523 21.026C111.494 20.7327 111.347 20.4393 111.083 20.146C110.819 19.8527 110.408 19.706 109.851 19.706C109.264 19.706 108.773 19.8967 108.377 20.278C107.996 20.6593 107.79 21.202 107.761 21.906L107.893 23.754C108.04 24.4287 108.37 24.898 108.883 25.162C109.411 25.426 109.998 25.558 110.643 25.558C111.259 25.558 111.846 25.4773 112.403 25.316C112.96 25.1547 113.408 24.9787 113.745 24.788C113.98 24.9347 114.178 25.14 114.339 25.404C114.5 25.668 114.581 25.9467 114.581 26.24C114.581 26.724 114.398 27.1273 114.031 27.45C113.679 27.758 113.188 27.9853 112.557 28.132C111.926 28.2787 111.2 28.352 110.379 28.352C109.235 28.352 108.201 28.1393 107.277 27.714C106.368 27.274 105.642 26.6213 105.099 25.756C104.571 24.8907 104.307 23.8053 104.307 22.5C104.307 21.532 104.461 20.696 104.769 19.992C105.092 19.288 105.517 18.716 106.045 18.276C106.573 17.836 107.16 17.5133 107.805 17.308C108.465 17.088 109.14 16.978 109.829 16.978C110.87 16.978 111.78 17.1833 112.557 17.594C113.334 17.99 113.943 18.54 114.383 19.244C114.823 19.9333 115.043 20.7327 115.043 21.642C115.043 22.1407 114.904 22.522 114.625 22.786C114.346 23.05 113.958 23.2187 113.459 23.292L106.573 24.326ZM118.647 24.326L118.515 21.862L123.597 21.026C123.568 20.7327 123.421 20.4393 123.157 20.146C122.893 19.8527 122.483 19.706 121.925 19.706C121.339 19.706 120.847 19.8967 120.451 20.278C120.07 20.6593 119.865 21.202 119.835 21.906L119.967 23.754C120.114 24.4287 120.444 24.898 120.957 25.162C121.485 25.426 122.072 25.558 122.717 25.558C123.333 25.558 123.92 25.4773 124.477 25.316C125.035 25.1547 125.482 24.9787 125.819 24.788C126.054 24.9347 126.252 25.14 126.413 25.404C126.575 25.668 126.655 25.9467 126.655 26.24C126.655 26.724 126.472 27.1273 126.105 27.45C125.753 27.758 125.262 27.9853 124.631 28.132C124.001 28.2787 123.275 28.352 122.453 28.352C121.309 28.352 120.275 28.1393 119.351 27.714C118.442 27.274 117.716 26.6213 117.173 25.756C116.645 24.8907 116.381 23.8053 116.381 22.5C116.381 21.532 116.535 20.696 116.843 19.992C117.166 19.288 117.591 18.716 118.119 18.276C118.647 17.836 119.234 17.5133 119.879 17.308C120.539 17.088 121.214 16.978 121.903 16.978C122.945 16.978 123.854 17.1833 124.631 17.594C125.409 17.99 126.017 18.54 126.457 19.244C126.897 19.9333 127.117 20.7327 127.117 21.642C127.117 22.1407 126.978 22.522 126.699 22.786C126.421 23.05 126.032 23.2187 125.533 23.292L118.647 24.326Z" fill="#012970"/>
<path d="M15 0.633789V0.633789C9.63976 2.34085 6 7.31987 6 12.9454V31.0004V31.0004C10.9706 31.0004 15 26.9709 15 22.0004V0.633789Z" fill="#0077BA"/>
<path fill-rule="evenodd" clip-rule="evenodd" d="M19 0C11.8203 0 6 5.82029 6 13V24.6435H19.6783C26.4834 24.6435 32 19.1268 32 12.3217C32 5.51663 26.4834 0 19.6783 0H19ZM19.8441 8.13965C22.4975 8.13965 24.6484 10.2906 24.6484 12.944C24.6484 15.5974 22.4975 17.7483 19.8441 17.7483H15.0397V8.13965H19.8441Z" fill="url(#paint0_linear_3161_537)"/>
</g>
<defs>
<linearGradient id="paint0_linear_3161_537" x1="19" y1="0" x2="19" y2="24.6435" gradientUnits="userSpaceOnUse">
<stop stop-color="#1EADFF"/>
<stop offset="1" stop-color="#0192EB" stop-opacity="0.65"/>
</linearGradient>
<clipPath id="clip0_3161_537">
<rect width="132" height="31" fill="white"/>
</clipPath>
</defs>
</svg>
